<mxfile host="app.diagrams.net" modified="2024-04-28T18:02:09.007Z" agent="Mozilla/5.0 (Windows NT 10.0; Win64; x64) AppleWebKit/537.36 (KHTML, like Gecko) Chrome/124.0.0.0 Safari/537.36" etag="ngVHaqGCIO5--CSvmF0W" version="24.3.1" type="github">
  <diagram name="Page-1" id="hZqb9sB0TwIm84P1ndLn">
    <mxGraphModel dx="1050" dy="609" grid="1" gridSize="10" guides="1" tooltips="1" connect="1" arrows="1" fold="1" page="1" pageScale="1" pageWidth="583" pageHeight="827" math="0" shadow="0">
      <root>
        <mxCell id="0" />
        <mxCell id="1" parent="0" />
        <mxCell id="nFE4Frp6ZCLN8-d8bGnr-6" value="" style="group" vertex="1" connectable="0" parent="1">
          <mxGeometry x="40" y="40" width="500" height="290" as="geometry" />
        </mxCell>
        <mxCell id="nFE4Frp6ZCLN8-d8bGnr-1" value="" style="rounded=0;whiteSpace=wrap;html=1;" vertex="1" parent="nFE4Frp6ZCLN8-d8bGnr-6">
          <mxGeometry width="499.9999999999999" height="290" as="geometry" />
        </mxCell>
        <mxCell id="nFE4Frp6ZCLN8-d8bGnr-2" value="Global" style="text;html=1;align=center;verticalAlign=middle;whiteSpace=wrap;rounded=0;" vertex="1" parent="nFE4Frp6ZCLN8-d8bGnr-6">
          <mxGeometry width="50" height="36.25" as="geometry" />
        </mxCell>
        <mxCell id="nFE4Frp6ZCLN8-d8bGnr-3" value="" style="rounded=0;whiteSpace=wrap;html=1;" vertex="1" parent="nFE4Frp6ZCLN8-d8bGnr-6">
          <mxGeometry x="20" y="28.130000000000003" width="427.59" height="233.75" as="geometry" />
        </mxCell>
        <mxCell id="nFE4Frp6ZCLN8-d8bGnr-4" value="Multi-Region" style="text;html=1;align=center;verticalAlign=middle;whiteSpace=wrap;rounded=0;" vertex="1" parent="nFE4Frp6ZCLN8-d8bGnr-6">
          <mxGeometry x="20" y="28.130000000000003" width="92.07" height="33.75" as="geometry" />
        </mxCell>
        <mxCell id="nFE4Frp6ZCLN8-d8bGnr-5" value="" style="rounded=0;whiteSpace=wrap;html=1;" vertex="1" parent="nFE4Frp6ZCLN8-d8bGnr-6">
          <mxGeometry x="51.72" y="60" width="158.28" height="175.63" as="geometry" />
        </mxCell>
        <mxCell id="nFE4Frp6ZCLN8-d8bGnr-8" value="Region 1" style="text;html=1;align=center;verticalAlign=middle;whiteSpace=wrap;rounded=0;" vertex="1" parent="nFE4Frp6ZCLN8-d8bGnr-6">
          <mxGeometry x="52.07" y="59.99999999999999" width="60" height="30" as="geometry" />
        </mxCell>
        <mxCell id="nFE4Frp6ZCLN8-d8bGnr-9" value="Region 1" style="text;html=1;align=center;verticalAlign=middle;whiteSpace=wrap;rounded=0;" vertex="1" parent="nFE4Frp6ZCLN8-d8bGnr-6">
          <mxGeometry x="252.35" y="60" width="60" height="30" as="geometry" />
        </mxCell>
        <mxCell id="nFE4Frp6ZCLN8-d8bGnr-10" value="" style="rounded=0;whiteSpace=wrap;html=1;" vertex="1" parent="nFE4Frp6ZCLN8-d8bGnr-6">
          <mxGeometry x="252" y="60" width="158.28" height="175.63" as="geometry" />
        </mxCell>
        <mxCell id="nFE4Frp6ZCLN8-d8bGnr-11" value="Region 2" style="text;html=1;align=center;verticalAlign=middle;whiteSpace=wrap;rounded=0;" vertex="1" parent="nFE4Frp6ZCLN8-d8bGnr-6">
          <mxGeometry x="252" y="61.879999999999995" width="60" height="30" as="geometry" />
        </mxCell>
        <mxCell id="nFE4Frp6ZCLN8-d8bGnr-12" value="Zone a" style="rounded=0;whiteSpace=wrap;html=1;" vertex="1" parent="nFE4Frp6ZCLN8-d8bGnr-6">
          <mxGeometry x="60" y="90" width="140" height="30" as="geometry" />
        </mxCell>
        <mxCell id="nFE4Frp6ZCLN8-d8bGnr-13" value="Zone b" style="rounded=0;whiteSpace=wrap;html=1;" vertex="1" parent="nFE4Frp6ZCLN8-d8bGnr-6">
          <mxGeometry x="60" y="140" width="140" height="30" as="geometry" />
        </mxCell>
        <mxCell id="nFE4Frp6ZCLN8-d8bGnr-14" value="Zone c" style="rounded=0;whiteSpace=wrap;html=1;" vertex="1" parent="nFE4Frp6ZCLN8-d8bGnr-6">
          <mxGeometry x="60.86" y="190" width="140" height="30" as="geometry" />
        </mxCell>
        <mxCell id="nFE4Frp6ZCLN8-d8bGnr-15" value="Zone a" style="rounded=0;whiteSpace=wrap;html=1;" vertex="1" parent="nFE4Frp6ZCLN8-d8bGnr-6">
          <mxGeometry x="261.14" y="91.88" width="140" height="30" as="geometry" />
        </mxCell>
        <mxCell id="nFE4Frp6ZCLN8-d8bGnr-16" value="Zone b" style="rounded=0;whiteSpace=wrap;html=1;" vertex="1" parent="nFE4Frp6ZCLN8-d8bGnr-6">
          <mxGeometry x="261.14" y="140" width="140" height="30" as="geometry" />
        </mxCell>
        <mxCell id="nFE4Frp6ZCLN8-d8bGnr-17" value="Zone c" style="rounded=0;whiteSpace=wrap;html=1;" vertex="1" parent="nFE4Frp6ZCLN8-d8bGnr-6">
          <mxGeometry x="261.14" y="190" width="140" height="30" as="geometry" />
        </mxCell>
      </root>
    </mxGraphModel>
  </diagram>
</mxfile>
